# xmcd
# 
# Track frame offsets:
#     150
#     17516
#     36271
#     56060
#     77799
#     95503
# 
# Disc length: 1565
# 
# Revision: 0
# Processed by: cddbd v1.5.2PL0 Copyright (c) Steve Scherf et al.
# Submitted via: BonkEnc v1.0.8
# 
DISCID=43061b06
DTITLE=Randall Morris - Memories 
DYEAR=2008
DGENRE=Country
TTITLE0=Again
TTITLE1=Memories
TTITLE2=Midnight
TTITLE3=Ocean Avenue
TTITLE4=Someone to Love Me
TTITLE5=I Fall
EXTD=
EXTT0=
EXTT1=
EXTT2=
EXTT3=
EXTT4=
EXTT5=
PLAYORDER=
